<svg width="100%" height="100%" id="svg" viewBox="0 0 1440 700" xmlns="http://www.w3.org/2000/svg" class="transition duration-300 ease-in-out delay-150"><defs><linearGradient id="gradient" x1="0%" y1="50%" x2="100%" y2="50%"><stop offset="5%" stop-color="#002bdc88"></stop><stop offset="95%" stop-color="#32ded488"></stop></linearGradient></defs><path d="M 0,700 C 0,700 0,233 0,233 C 104.25,192.89285714285714 208.5,152.78571428571428 316,168 C 423.5,183.21428571428572 534.2500000000001,253.74999999999994 666,276 C 797.7499999999999,298.25000000000006 950.5,272.2142857142857 1083,257 C 1215.5,241.78571428571428 1327.75,237.39285714285714 1440,233 C 1440,233 1440,700 1440,700 Z" stroke="none" stroke-width="0" fill="url(#gradient)" class="transition-all duration-300 ease-in-out delay-150 path-0"></path><defs><linearGradient id="gradient" x1="0%" y1="50%" x2="100%" y2="50%"><stop offset="5%" stop-color="#002bdcff"></stop><stop offset="95%" stop-color="#32ded4ff"></stop></linearGradient></defs><path d="M 0,700 C 0,700 0,466 0,466 C 105.67857142857142,447.1428571428571 211.35714285714283,428.2857142857143 312,444 C 412.64285714285717,459.7142857142857 508.2499999999999,510 655,516 C 801.7500000000001,522 999.6428571428573,483.7142857142858 1139,468 C 1278.3571428571427,452.2857142857142 1359.1785714285713,459.1428571428571 1440,466 C 1440,466 1440,700 1440,700 Z" stroke="none" stroke-width="0" fill="url(#gradient)" class="transition-all duration-300 ease-in-out delay-150 path-1"></path></svg>