<?xml version="1.0" standalone="no"?><!DOCTYPE svg PUBLIC "-//W3C//DTD SVG 1.1//EN" "http://www.w3.org/Graphics/SVG/1.1/DTD/svg11.dtd"><svg class="icon" width="32px" height="32.00px" viewBox="0 0 1024 1024" version="1.1" xmlns="http://www.w3.org/2000/svg"><path fill="#ffffff" d="M1004 969.6H20.8c-8.8 0-16-7.2-16-16V628c-0.8-4 0-7.2 1.6-11.2l108.8-201.6V84c0-8.8 7.2-16 16-16h763.2c8.8 0 16 7.2 16 16v333.6l103.2 196c4 3.2 7.2 8 7.2 12.8v326.4c-0.8 9.6-8 16.8-16.8 16.8z m-967.2-32h951.2V634.4L880 429.6c-0.8-0.8-0.8-2.4-1.6-3.2l-0.8-2.4c0-1.6-0.8-2.4-0.8-4v-320H146.4v319.2c0 2.4-0.8 5.6-1.6 8l-108 200v310.4zM479.2 427.2H204c-8 0-14.4-6.4-14.4-14.4V263.2c0-8 6.4-14.4 14.4-14.4h275.2c8 0 14.4 6.4 14.4 14.4v149.6c0.8 8-5.6 14.4-14.4 14.4z m-273.6-16h272.8V264.8H205.6v146.4zM820.8 427.2H544.8c-8 0-14.4-6.4-14.4-14.4V263.2c0-8 6.4-14.4 14.4-14.4h275.2c8 0 14.4 6.4 14.4 14.4v149.6c0.8 8-5.6 14.4-13.6 14.4z m-274.4-16h272.8V264.8H546.4v146.4zM89.6 1024c-8.8 0-16-7.2-16-16v-48c0-8.8 7.2-16 16-16s16 7.2 16 16v48c0 8.8-7.2 16-16 16zM935.2 1024c-8.8 0-16-7.2-16-16v-48c0-8.8 7.2-16 16-16s16 7.2 16 16v48c0 8.8-7.2 16-16 16zM893.6 427.2H130.4c-4.8 0-8-3.2-8-8s3.2-8 8-8h763.2c4.8 0 8 3.2 8 8s-3.2 8-8 8zM1001.6 635.2H20.8c-4.8 0-8-3.2-8-8s3.2-8 8-8h981.6c4.8 0 8 3.2 8 8-0.8 4-4 8-8.8 8z" /></svg>