<?xml version="1.0" standalone="no"?><!DOCTYPE svg PUBLIC "-//W3C//DTD SVG 1.1//EN" "http://www.w3.org/Graphics/SVG/1.1/DTD/svg11.dtd"><svg class="icon" width="32px" height="32.00px" viewBox="0 0 1024 1024" version="1.1" xmlns="http://www.w3.org/2000/svg"><path fill="#ffffff" d="M912.8 1020H111.2c-8.8 0-16-7.2-16-16V20c0-8.8 7.2-16 16-16h802.4c8.8 0 16 7.2 16 16v984c-0.8 8.8-8 16-16.8 16z m-785.6-32h770.4V36H127.2v952zM427.2 384c-4.8 0-8-3.2-8-8V279.2c0-4.8 3.2-8 8-8s8 3.2 8 8V376c0 4-3.2 8-8 8zM596.8 384c-4.8 0-8-3.2-8-8V279.2c0-4.8 3.2-8 8-8s8 3.2 8 8V376c0 4-4 8-8 8zM550.4 737.6H460c-4.8 0-8-3.2-8-8s3.2-8 8-8h91.2c4.8 0 8 3.2 8 8-0.8 4-4 8-8.8 8zM550.4 917.6H460c-4.8 0-8-3.2-8-8s3.2-8 8-8h91.2c4.8 0 8 3.2 8 8-0.8 4-4 8-8.8 8zM911.2 643.2H112.8c-4.8 0-8-3.2-8-8s3.2-8 8-8h798.4c4.8 0 8 3.2 8 8 0 4-4 8-8 8zM512 643.2c-4.8 0-8-3.2-8-8V20c0-4.8 3.2-8 8-8s8 3.2 8 8v615.2c0 4-3.2 8-8 8zM911.2 827.2H112.8c-4.8 0-8-3.2-8-8s3.2-8 8-8h798.4c4.8 0 8 3.2 8 8s-4 8-8 8z" /></svg>