<svg width="21.799988" height="21.519379" viewBox="0 0 21.8 21.5194" fill="none" xmlns="http://www.w3.org/2000/svg" xmlns:xlink="http://www.w3.org/1999/xlink">
	<desc>
			Created with Pixso.
	</desc>
	<path d="M20.264 8.99515L12.2479 1.31537C11.4801 0.578873 10.2768 0.578873 9.50696 1.31537L1.48883 8.99515C0.895264 9.56418 0.718994 10.3895 1.0249 11.1502C1.33282 11.9109 2.03577 12.383 2.85828 12.383L3.51868 12.383L3.51868 18.3073C3.51868 19.6613 4.62476 20.763 5.98407 20.763L9.25378 20.763L9.25378 15.1575C9.25378 14.4473 9.83514 13.8681 10.5483 13.8681L11.4295 13.8681C12.1426 13.8681 12.724 14.4473 12.724 15.1575L12.724 20.313L12.726 20.313L12.726 20.761L15.9937 20.761C17.353 20.761 18.459 19.6593 18.459 18.3053L18.459 12.383L18.8966 12.383C19.7191 12.383 20.4221 11.9109 20.73 11.1502C21.0359 10.3895 20.8576 9.56418 20.264 8.99515L20.264 8.99515Z" fill="#86CEFD"/>
	<defs/>
</svg>
