<svg width="52.000000" height="52.000000" viewBox="0 0 52 52" fill="none" xmlns="http://www.w3.org/2000/svg" xmlns:xlink="http://www.w3.org/1999/xlink">
	<desc>
			Created with Pixso.
	</desc>
	<circle cx="26.000000" cy="26.000000" r="26.000000" fill="#E0F0F5"/>
	<path d="M30.9062 29.7278C32.0071 28.3679 32.6666 26.636 32.6666 24.75C32.6666 20.3778 29.1222 16.8334 24.7499 16.8334C20.3777 16.8334 16.8333 20.3778 16.8333 24.75C16.8333 29.1223 20.3777 32.6667 24.7499 32.6667C26.6359 32.6667 28.3678 32.0072 29.7277 30.9063L32.7886 33.9673C33.1141 34.2927 33.6417 34.2927 33.9671 33.9673C34.2926 33.6418 34.2926 33.1142 33.9671 32.7887L30.9062 29.7278ZM30.9999 24.75C30.9999 28.2018 28.2017 31 24.7499 31C21.2982 31 18.4999 28.2018 18.4999 24.75C18.4999 21.2983 21.2982 18.5 24.7499 18.5C28.2017 18.5 30.9999 21.2983 30.9999 24.75Z" fill="#46B3FA" fill-opacity="1.000000"/>
	<defs/>
</svg>
